#N canvas 100 38 860 620 10;
#X declare -lib moocow;
#X obj 15 127 select 0 1;
#X obj 15 83 tgl 15 0 empty empty empty 17 7 0 10 -262144 -1 -1 0 1
;
#X msg 15 173 close;
#X msg 134 173 ports;
#X obj 96 237 route ports;
#X obj 96 259 print port_list;
#X msg -140 198 pollintervall 10;
#X obj 15 291 select 10 13;
#X floatatom 15 485 5 0 0 0 - - -;
#X obj -140 140 import moocow;
#X obj 15 370 bytes2any;
#X obj -140 106 loadbang;
#X msg 65 173 open 3;
#X obj 15 215 comport 3 9600;
#X text 36 82 ON/OFF;
#X obj 15 509 s fre;
#X obj 62 501 * 100;
#X obj 62 529 / 1000;
#X floatatom 62 552 5 0 0 0 - - -;
#X obj 62 574 s por;
#X msg 355 361 [;
#X msg 288 361 ];
#X msg 260 104 disconnect;
#X obj 251 23 loadbang;
#X obj 251 501 sendOSC 12001;
#X msg 251 62 connect localhost 12001;
#X obj 209 194 r fre;
#X obj 54 459 s f1;
#X obj 93 459 s f2;
#X obj 132 459 s f3;
#X obj 288 271 t b list b;
#X msg 316 453 send /ant \$1 \, send /f1 \$2 \, send /f2 \$3 \, send
/f3 \$4;
#X obj 288 182 t b f;
#X obj 288 211 pack f f f f;
#X obj 328 182 t b f;
#X obj 368 182 t b f;
#X obj 288 150 r f1;
#X obj 328 150 r f2;
#X obj 368 150 r f3;
#X obj 15 336 zl group 16;
#X obj 15 411 unpack 0 0 0 0;
#X connect 0 0 2 0;
#X connect 0 1 12 0;
#X connect 1 0 0 0;
#X connect 2 0 13 0;
#X connect 3 0 13 0;
#X connect 4 0 5 0;
#X connect 6 0 13 0;
#X connect 7 0 39 0;
#X connect 7 2 39 0;
#X connect 8 0 15 0;
#X connect 8 0 16 0;
#X connect 10 0 40 0;
#X connect 11 0 9 0;
#X connect 11 0 6 0;
#X connect 12 0 13 0;
#X connect 13 0 7 0;
#X connect 13 1 4 0;
#X connect 16 0 17 0;
#X connect 17 0 18 0;
#X connect 18 0 19 0;
#X connect 20 0 24 0;
#X connect 21 0 24 0;
#X connect 22 0 24 0;
#X connect 23 0 25 0;
#X connect 25 0 24 0;
#X connect 26 0 33 0;
#X connect 30 0 21 0;
#X connect 30 1 31 0;
#X connect 30 2 20 0;
#X connect 31 0 24 0;
#X connect 32 0 33 0;
#X connect 32 1 33 1;
#X connect 33 0 30 0;
#X connect 34 0 33 0;
#X connect 34 1 33 2;
#X connect 35 0 33 0;
#X connect 35 1 33 3;
#X connect 36 0 32 0;
#X connect 37 0 34 0;
#X connect 38 0 35 0;
#X connect 39 0 10 0;
#X connect 40 0 8 0;
#X connect 40 1 27 0;
#X connect 40 2 28 0;
#X connect 40 3 29 0;
