#N canvas -8 217 702 453 10;
#X obj 309 316 pitchshifter;
#X obj 309 163 readsf~;
#X msg 88 90 start;
#X msg 47 146 stop;
#X obj 88 117 t a b;
#X obj 88 68 bng 15 250 50 0 empty empty empty 17 7 0 10 -262144 -1
-1;
#X obj 47 113 bng 15 250 50 0 empty empty empty 17 7 0 10 -262144 -1
-1;
#X msg 309 134 open campo.wav;
#X obj 248 379 dac~;
#X obj 257 51 metro 30000;
#X obj 257 15 bng 15 250 50 0 empty empty empty 17 7 0 10 -262144 -1
-1;
#X obj 409 299 line;
#X msg 409 275 \$1 500;
#X obj 409 226 r fre;
#X obj 498 123 biquad~;
#X obj 498 92 noise~;
#X obj 497 184 dac~;
#X obj 561 106 lowpass;
#X msg 632 68 35;
#X obj 632 45 loadbang;
#X obj 561 80 line;
#X msg 561 58 \$1 500;
#X obj 561 15 r por;
#X obj 561 37 * 100;
#X obj 498 151 *~ 0.02;
#X obj 409 254 - 150;
#X obj 198 272 readsf~;
#X msg 97 199 start;
#X msg 56 255 stop;
#X obj 97 226 t a b;
#X obj 97 177 bng 15 250 50 0 empty empty empty 17 7 0 10 -262144 -1
-1;
#X obj 56 222 bng 15 250 50 0 empty empty empty 17 7 0 10 -262144 -1
-1;
#X msg 198 243 open campo.wav;
#X obj 257 88 delay 1500;
#X obj 308 239 *~ 0.99;
#X obj 197 307 *~ 0.2;
#X obj 632 89 t b f;
#X connect 0 0 8 0;
#X connect 0 0 8 1;
#X connect 1 0 34 0;
#X connect 2 0 4 0;
#X connect 3 0 1 0;
#X connect 4 0 1 0;
#X connect 4 1 7 0;
#X connect 5 0 2 0;
#X connect 6 0 3 0;
#X connect 7 0 1 0;
#X connect 9 0 5 0;
#X connect 9 0 33 0;
#X connect 10 0 9 0;
#X connect 11 0 0 1;
#X connect 12 0 11 0;
#X connect 13 0 25 0;
#X connect 14 0 24 0;
#X connect 15 0 14 0;
#X connect 17 0 14 0;
#X connect 18 0 36 0;
#X connect 19 0 18 0;
#X connect 20 0 17 0;
#X connect 21 0 20 0;
#X connect 22 0 23 0;
#X connect 23 0 21 0;
#X connect 24 0 16 0;
#X connect 24 0 16 1;
#X connect 25 0 12 0;
#X connect 26 0 35 0;
#X connect 27 0 29 0;
#X connect 28 0 26 0;
#X connect 29 0 26 0;
#X connect 29 1 32 0;
#X connect 30 0 27 0;
#X connect 31 0 28 0;
#X connect 32 0 26 0;
#X connect 33 0 30 0;
#X connect 34 0 0 0;
#X connect 35 0 8 0;
#X connect 35 0 8 1;
#X connect 36 0 17 0;
#X connect 36 1 17 1;
