#N canvas 182 36 924 572 10;
#X floatatom 19 87 0 0 0 0 - - -;
#X obj 82 358 *~;
#X obj 205 295 line~;
#X floatatom 237 112 0 0 0 0 - - -;
#X obj 205 269 pack 0 200;
#X obj 19 143 exp;
#X floatatom 19 169 6 0 0 0 - - -;
#X obj 19 259 /;
#X obj 146 189 * 0.001;
#X obj 314 365 line~;
#X obj 314 340 pack 0 200;
#X floatatom 314 289 0 0 0 0 - - -;
#X obj 82 384 +~;
#X obj 19 410 cos~;
#X obj 19 437 *~;
#X obj 19 466 +~;
#X obj 106 317 wrap~;
#X obj 251 360 *~;
#X obj 251 393 +~;
#X obj 188 420 cos~;
#X obj 188 447 *~;
#X obj 492 30 loadbang;
#X obj 146 216 t b f;
#X floatatom 19 285 6 0 0 0 - - -;
#X obj 106 290 +~ 0.5;
#X obj 19 358 -~ 0.5;
#X obj 19 384 *~ 0.5;
#X obj 188 359 -~ 0.5;
#X obj 188 392 *~ 0.5;
#X obj 19 196 - 1;
#X obj 19 117 * 0.05776;
#X obj 19 222 * -1;
#X obj 19 316 phasor~;
#X obj 314 316 max 1.5;
#X text 317 222 delay;
#X text 314 240 (msec);
#X obj 237 139 max 1;
#X obj 19 61 r \$0-transpose;
#X obj 493 52 float \$0;
#X msg 492 73 \; \$1-transpose 0 \; \$1-window 100 \; \$1-delay 0;
#X obj 237 86 r \$0-window;
#X obj 7 41 delwrite~ \$0-G09-del 5000;
#X obj 252 422 vd~ \$0-G09-del;
#X obj 82 410 vd~ \$0-G09-del;
#X obj 19 493 outlet~;
#X obj 10 19 inlet~;
#X obj 193 24 inlet;
#X obj 320 180 inlet;
#X obj 314 263 r \$0-delay;
#X connect 0 0 30 0;
#X connect 1 0 12 0;
#X connect 2 0 1 1;
#X connect 2 0 17 1;
#X connect 3 0 36 0;
#X connect 4 0 2 0;
#X connect 5 0 6 0;
#X connect 6 0 29 0;
#X connect 7 0 23 0;
#X connect 8 0 22 0;
#X connect 9 0 12 1;
#X connect 9 0 18 1;
#X connect 10 0 9 0;
#X connect 11 0 33 0;
#X connect 12 0 43 0;
#X connect 13 0 14 0;
#X connect 14 0 15 0;
#X connect 15 0 44 0;
#X connect 16 0 17 0;
#X connect 16 0 27 0;
#X connect 17 0 18 0;
#X connect 18 0 42 0;
#X connect 19 0 20 0;
#X connect 20 0 15 1;
#X connect 21 0 38 0;
#X connect 22 0 7 0;
#X connect 22 1 7 1;
#X connect 23 0 32 0;
#X connect 24 0 16 0;
#X connect 25 0 26 0;
#X connect 26 0 13 0;
#X connect 27 0 28 0;
#X connect 28 0 19 0;
#X connect 29 0 31 0;
#X connect 30 0 5 0;
#X connect 31 0 7 0;
#X connect 32 0 1 0;
#X connect 32 0 25 0;
#X connect 32 0 24 0;
#X connect 33 0 10 0;
#X connect 36 0 8 0;
#X connect 36 0 4 0;
#X connect 37 0 0 0;
#X connect 38 0 39 0;
#X connect 40 0 3 0;
#X connect 42 0 20 1;
#X connect 43 0 14 1;
#X connect 45 0 41 0;
#X connect 46 0 0 0;
#X connect 47 0 11 0;
#X connect 48 0 11 0;
